<svg width="31" height="31" viewBox="0 0 31 31" fill="none" xmlns="http://www.w3.org/2000/svg">
<path d="M26.9041 16.6121C27.125 16.0787 27.125 15.4005 27.125 14.0469C27.125 12.6932 27.125 12.0151 26.9041 11.4816C26.7581 11.1289 26.544 10.8084 26.274 10.5385C26.0041 10.2685 25.6836 10.0544 25.3309 9.90837C24.7974 9.6875 24.1193 9.6875 22.7656 9.6875H14.3375C12.71 9.6875 11.8962 9.6875 11.275 10.004C10.7276 10.2827 10.2827 10.7276 10.004 11.275C9.6875 11.895 9.6875 12.7087 9.6875 14.3375V22.7656C9.6875 24.1193 9.6875 24.7974 9.90837 25.3309C10.2042 26.0426 10.7699 26.6096 11.4816 26.9041C12.0151 27.125 12.6932 27.125 14.0469 27.125C15.4005 27.125 16.0787 27.125 16.6121 26.9041M26.9041 16.6121C26.7581 16.9648 26.544 17.2853 26.274 17.5553C26.0041 17.8252 25.6836 18.0393 25.3309 18.1854C24.7974 18.4063 24.1193 18.4062 22.7656 18.4062C21.412 18.4062 20.7338 18.4062 20.2004 18.6271C19.8477 18.7732 19.5272 18.9873 19.2572 19.2572C18.9873 19.5272 18.7732 19.8477 18.6271 20.2004C18.4062 20.7338 18.4062 21.412 18.4062 22.7656C18.4062 24.1193 18.4063 24.7974 18.1854 25.3309C18.0393 25.6836 17.8252 26.0041 17.5553 26.274C17.2853 26.544 16.9648 26.7581 16.6121 26.9041M26.9041 16.6121C26.2093 19.008 24.9311 21.1942 23.1842 22.975C21.4372 24.7558 19.2759 26.0756 16.8937 26.8163L16.6121 26.9041M21.3125 9.6875V8.525C21.3125 6.8975 21.3125 6.08375 20.996 5.46246C20.7177 4.91533 20.2732 4.47039 19.7263 4.19146C19.1037 3.875 18.29 3.875 16.6625 3.875H8.525C6.8975 3.875 6.08375 3.875 5.46246 4.19146C4.91513 4.47017 4.47017 4.91513 4.19146 5.46246C3.875 6.08246 3.875 6.89621 3.875 8.525V16.6625C3.875 18.29 3.875 19.1037 4.19146 19.725C4.47046 20.2727 4.91479 20.717 5.46246 20.996C6.08246 21.3125 6.8975 21.3125 8.52629 21.3125H9.6875" stroke="white" stroke-width="1.5" stroke-linecap="round" stroke-linejoin="round"/>
</svg>
