<svg width="383" height="314" viewBox="0 0 383 314" fill="none" xmlns="http://www.w3.org/2000/svg">
<g filter="url(#filter0_b_87_211)">
<path d="M0 281C0 299.225 14.7746 314 33 314H350C368.225 314 383 299.225 383 281V157V121.147C383 102.671 367.832 87.7945 349.359 88.1532L312.714 88.8648C294.602 89.2165 279.592 74.9012 279.086 56.7924L278.396 32.0786C277.897 14.219 263.275 0 245.409 0H191.5H33C14.7746 0 0 14.7746 0 33V281Z" fill="#D4D4D4" fill-opacity="0.1"/>
<path d="M0.5 281C0.5 298.949 15.0507 313.5 33 313.5H350C367.949 313.5 382.5 298.949 382.5 281V157V121.147C382.5 102.951 367.562 88.2999 349.369 88.6531L312.724 89.3647C294.337 89.7217 279.1 75.1895 278.587 56.8064L277.896 32.0925C277.405 14.5035 263.005 0.5 245.409 0.5H191.5H33C15.0507 0.5 0.5 15.0508 0.5 33V281Z" stroke="url(#paint0_linear_87_211)" stroke-opacity="0.5"/>
</g>
<defs>
<filter id="filter0_b_87_211" x="-119.3" y="-119.3" width="621.6" height="552.6" filterUnits="userSpaceOnUse" color-interpolation-filters="sRGB">
<feFlood flood-opacity="0" result="BackgroundImageFix"/>
<feGaussianBlur in="BackgroundImageFix" stdDeviation="59.65"/>
<feComposite in2="SourceAlpha" operator="in" result="effect1_backgroundBlur_87_211"/>
<feBlend mode="normal" in="SourceGraphic" in2="effect1_backgroundBlur_87_211" result="shape"/>
</filter>
<linearGradient id="paint0_linear_87_211" x1="0" y1="314" x2="312" y2="68" gradientUnits="userSpaceOnUse">
<stop stop-color="white"/>
<stop offset="1" stop-color="#D0D0D0" stop-opacity="0"/>
</linearGradient>
</defs>
</svg>
