<svg width="66" height="67" viewBox="0 0 66 67" fill="none" xmlns="http://www.w3.org/2000/svg">
<g filter="url(#filter0_d_87_192)">
<path d="M27.375 56.25H18C16.5082 56.25 15.0774 55.6574 14.0225 54.6025C12.9676 53.5476 12.375 52.1169 12.375 50.625V37.2H16.125V50.625C16.125 51.1223 16.3225 51.5992 16.6742 51.9508C17.0258 52.3025 17.5027 52.5 18 52.5H27.375V56.25Z" fill="#5A5AA8"/>
<path d="M53.625 22.8H49.875V9.375C49.875 8.87772 49.6775 8.40081 49.3258 8.04918C48.9742 7.69754 48.4973 7.5 48 7.5H38.625V3.75H48C49.4918 3.75 50.9226 4.34263 51.9775 5.39752C53.0324 6.45242 53.625 7.88316 53.625 9.375V22.8Z" fill="#5A5AA8"/>
<path d="M19.875 31.875C28.1593 31.875 34.875 25.1593 34.875 16.875C34.875 8.59073 28.1593 1.875 19.875 1.875C11.5907 1.875 4.875 8.59073 4.875 16.875C4.875 25.1593 11.5907 31.875 19.875 31.875Z" fill="#6CAFFF"/>
<path d="M8.62498 20.625C8.62498 16.6467 10.2053 12.8314 13.0184 10.0184C15.8314 7.20533 19.6467 5.62498 23.625 5.62498C26.686 5.61638 29.674 6.55995 32.175 8.32498C30.9304 6.50605 29.3002 4.98374 27.4004 3.86634C25.5007 2.74895 23.3781 2.06392 21.1835 1.86C18.989 1.65608 16.7765 1.93826 14.7034 2.68649C12.6303 3.43472 10.7475 4.63059 9.18905 6.18905C7.63059 7.74751 6.43472 9.63026 5.68649 11.7034C4.93826 13.7765 4.65608 15.989 4.86 18.1835C5.06392 20.3781 5.74895 22.5007 6.86634 24.4004C7.98374 26.3002 9.50605 27.9304 11.325 29.175C9.55995 26.674 8.61638 23.686 8.62498 20.625Z" fill="#4A8FD3"/>
<path d="M25.5 23.775L18.8437 19.2937C18.5858 19.1239 18.3738 18.893 18.2266 18.6215C18.0795 18.35 18.0016 18.0463 18 17.7375V10.7062H21.75V16.725L27.6375 20.625L25.5 23.775Z" fill="#F5EEEC"/>
<path d="M44.25 58.125C53.5698 58.125 61.125 50.5698 61.125 41.25C61.125 31.9302 53.5698 24.375 44.25 24.375C34.9302 24.375 27.375 31.9302 27.375 41.25C27.375 50.5698 34.9302 58.125 44.25 58.125Z" fill="#FFC144"/>
<path d="M31.1252 45C31.1282 41.8912 31.9898 38.8436 33.6151 36.1935C35.2404 33.5434 37.5662 31.3938 40.3358 29.9818C43.1055 28.5698 46.2113 27.9504 49.3108 28.1918C52.4102 28.4332 55.3827 29.5262 57.9002 31.35C56.4728 29.3622 54.6301 27.7087 52.4999 26.5041C50.3697 25.2995 48.003 24.5726 45.5639 24.3739C43.1248 24.1751 40.6717 24.5092 38.3746 25.3531C36.0775 26.1969 33.9914 27.5303 32.2609 29.2607C30.5305 30.9911 29.1971 33.0772 28.3533 35.3743C27.5095 37.6714 27.1754 40.1246 27.3741 42.5637C27.5729 45.0028 28.2998 47.3695 29.5044 49.4997C30.709 51.6299 32.3625 53.4726 34.3502 54.9C32.2586 52.0224 31.1299 48.5574 31.1252 45Z" fill="#D3922A"/>
<path d="M19.875 45.7688L14.25 40.1438L8.62501 45.7688L5.98126 43.125L12.9188 36.1688C13.0931 35.993 13.3004 35.8535 13.5289 35.7583C13.7574 35.6631 14.0025 35.6141 14.25 35.6141C14.4975 35.6141 14.7426 35.6631 14.9711 35.7583C15.1996 35.8535 15.407 35.993 15.5813 36.1688L22.5188 43.125L19.875 45.7688Z" fill="#8481E2"/>
<path d="M51.75 24.375C51.5032 24.3764 51.2586 24.3291 51.0302 24.2358C50.8017 24.1425 50.594 24.005 50.4188 23.8313L43.4813 16.875L46.125 14.2313L51.75 19.8563L57.375 14.2313L60.0188 16.875L53.0813 23.8313C52.9061 24.005 52.6983 24.1425 52.4698 24.2358C52.2414 24.3291 51.9968 24.3764 51.75 24.375Z" fill="#8481E2"/>
<path d="M45.8058 49.3688H37.6871V45.6188H45.8058C45.9824 45.6405 46.1616 45.6244 46.3315 45.5717C46.5014 45.5189 46.6582 45.4307 46.7914 45.3128C46.9247 45.1949 47.0313 45.0501 47.1044 44.8879C47.1775 44.7257 47.2153 44.5498 47.2153 44.3719C47.2153 44.194 47.1775 44.0181 47.1044 43.8559C47.0313 43.6937 46.9247 43.5489 46.7914 43.431C46.6582 43.3131 46.5014 43.2249 46.3315 43.1721C46.1616 43.1194 45.9824 43.1033 45.8058 43.125H42.6933C42.0114 43.1668 41.3281 43.0686 40.6856 42.8364C40.043 42.6041 39.4548 42.2429 38.9571 41.7748C38.4595 41.3067 38.0629 40.7416 37.7918 40.1145C37.5207 39.4874 37.3809 38.8114 37.3809 38.1281C37.3809 37.4449 37.5207 36.7689 37.7918 36.1418C38.0629 35.5146 38.4595 34.9496 38.9571 34.4815C39.4548 34.0134 40.043 33.6521 40.6856 33.4199C41.3281 33.1877 42.0114 33.0895 42.6933 33.1313H50.8121V36.8813H42.6933C42.5168 36.8596 42.3376 36.8756 42.1677 36.9284C41.9978 36.9811 41.841 37.0694 41.7078 37.1872C41.5745 37.3051 41.4678 37.4499 41.3948 37.6122C41.3217 37.7744 41.2839 37.9502 41.2839 38.1281C41.2839 38.306 41.3217 38.4819 41.3948 38.6441C41.4678 38.8063 41.5745 38.9512 41.7078 39.069C41.841 39.1869 41.9978 39.2752 42.1677 39.3279C42.3376 39.3806 42.5168 39.3967 42.6933 39.375H45.8058C46.4878 39.3332 47.1711 39.4315 47.8136 39.6637C48.4562 39.8959 49.0444 40.2572 49.5421 40.7253C50.0397 41.1934 50.4363 41.7584 50.7074 42.3855C50.9785 43.0127 51.1183 43.6887 51.1183 44.3719C51.1183 45.0551 50.9785 45.7311 50.7074 46.3582C50.4363 46.9854 50.0397 47.5504 49.5421 48.0185C49.0444 48.4866 48.4562 48.8479 47.8136 49.0801C47.1711 49.3123 46.4878 49.4106 45.8058 49.3688Z" fill="#F5EEEC"/>
<path d="M42.375 30H46.125V36.6188H42.375V30Z" fill="#F5EEEC"/>
<path d="M42.375 45.8813H46.125V52.5001H42.375V45.8813Z" fill="#F5EEEC"/>
</g>
<defs>
<filter id="filter0_d_87_192" x="-1" y="0" width="68" height="68" filterUnits="userSpaceOnUse" color-interpolation-filters="sRGB">
<feFlood flood-opacity="0" result="BackgroundImageFix"/>
<feColorMatrix in="SourceAlpha" type="matrix" values="0 0 0 0 0 0 0 0 0 0 0 0 0 0 0 0 0 0 127 0" result="hardAlpha"/>
<feOffset dy="4"/>
<feGaussianBlur stdDeviation="2"/>
<feComposite in2="hardAlpha" operator="out"/>
<feColorMatrix type="matrix" values="0 0 0 0 0 0 0 0 0 0 0 0 0 0 0 0 0 0 0.25 0"/>
<feBlend mode="normal" in2="BackgroundImageFix" result="effect1_dropShadow_87_192"/>
<feBlend mode="normal" in="SourceGraphic" in2="effect1_dropShadow_87_192" result="shape"/>
</filter>
</defs>
</svg>
