<svg width="60" height="60" viewBox="0 0 60 60" fill="none" xmlns="http://www.w3.org/2000/svg">
<path d="M43.75 3.75H18.75C17.3693 3.75 16.25 4.86929 16.25 6.25V53.75C16.25 55.1307 17.3693 56.25 18.75 56.25H43.75C45.1307 56.25 46.25 55.1307 46.25 53.75V6.25C46.25 4.86929 45.1307 3.75 43.75 3.75Z" fill="#F8F6F7"/>
<path d="M46.25 6.25V11.25H16.25V6.25C16.25 5.58696 16.5134 4.95107 16.9822 4.48223C17.4511 4.01339 18.087 3.75 18.75 3.75H43.75C44.413 3.75 45.0489 4.01339 45.5178 4.48223C45.9866 4.95107 46.25 5.58696 46.25 6.25Z" fill="#98D6FC"/>
<path d="M16.25 48.75H46.25V53.75C46.25 54.413 45.9866 55.0489 45.5178 55.5178C45.0489 55.9866 44.413 56.25 43.75 56.25H18.75C18.087 56.25 17.4511 55.9866 16.9822 55.5178C16.5134 55.0489 16.25 54.413 16.25 53.75V48.75Z" fill="#98D6FC"/>
<path d="M23.75 16.25H6.25C4.86929 16.25 3.75 17.3693 3.75 18.75V33.75C3.75 35.1307 4.86929 36.25 6.25 36.25H23.75C25.1307 36.25 26.25 35.1307 26.25 33.75V18.75C26.25 17.3693 25.1307 16.25 23.75 16.25Z" fill="#FBE639"/>
<path d="M15 25C16.3807 25 17.5 23.8807 17.5 22.5C17.5 21.1193 16.3807 20 15 20C13.6193 20 12.5 21.1193 12.5 22.5C12.5 23.8807 13.6193 25 15 25Z" fill="#F8F6F7"/>
<path d="M11.25 32.5V31.25C11.25 30.587 11.5134 29.9511 11.9822 29.4822C12.4511 29.0134 13.087 28.75 13.75 28.75H16.25C16.913 28.75 17.5489 29.0134 18.0178 29.4822C18.4866 29.9511 18.75 30.587 18.75 31.25V32.5" fill="#F8F6F7"/>
<path d="M53.75 23.75H36.25C34.8693 23.75 33.75 24.8693 33.75 26.25V41.25C33.75 42.6307 34.8693 43.75 36.25 43.75H53.75C55.1307 43.75 56.25 42.6307 56.25 41.25V26.25C56.25 24.8693 55.1307 23.75 53.75 23.75Z" fill="#F47F8F"/>
<path d="M45 32.5C46.3807 32.5 47.5 31.3807 47.5 30C47.5 28.6193 46.3807 27.5 45 27.5C43.6193 27.5 42.5 28.6193 42.5 30C42.5 31.3807 43.6193 32.5 45 32.5Z" fill="#F8F6F7"/>
<path d="M41.25 40V38.75C41.25 38.087 41.5134 37.4511 41.9822 36.9822C42.4511 36.5134 43.087 36.25 43.75 36.25H46.25C46.913 36.25 47.5489 36.5134 48.0178 36.9822C48.4866 37.4511 48.75 38.087 48.75 38.75V40" fill="#F8F6F7"/>
<path d="M46.25 21.25C45.9185 21.25 45.6005 21.1183 45.3661 20.8839C45.1317 20.6495 45 20.3315 45 20V6.25C45 5.91848 44.8683 5.60054 44.6339 5.36612C44.3995 5.1317 44.0815 5 43.75 5H18.75C18.4185 5 18.1005 5.1317 17.8661 5.36612C17.6317 5.60054 17.5 5.91848 17.5 6.25V12.5C17.5 12.8315 17.3683 13.1495 17.1339 13.3839C16.8995 13.6183 16.5815 13.75 16.25 13.75C15.9185 13.75 15.6005 13.6183 15.3661 13.3839C15.1317 13.1495 15 12.8315 15 12.5V6.25C15 5.25544 15.3951 4.30161 16.0983 3.59835C16.8016 2.89509 17.7554 2.5 18.75 2.5H43.75C44.7446 2.5 45.6984 2.89509 46.4016 3.59835C47.1049 4.30161 47.5 5.25544 47.5 6.25V20C47.5 20.3315 47.3683 20.6495 47.1339 20.8839C46.8995 21.1183 46.5815 21.25 46.25 21.25Z" fill="#231F20"/>
<path d="M43.75 57.5H18.75C17.7554 57.5 16.8016 57.1049 16.0983 56.4016C15.3951 55.6984 15 54.7446 15 53.75V40C15 39.6685 15.1317 39.3505 15.3661 39.1161C15.6005 38.8817 15.9185 38.75 16.25 38.75C16.5815 38.75 16.8995 38.8817 17.1339 39.1161C17.3683 39.3505 17.5 39.6685 17.5 40V53.75C17.5 54.0815 17.6317 54.3995 17.8661 54.6339C18.1005 54.8683 18.4185 55 18.75 55H43.75C44.0815 55 44.3995 54.8683 44.6339 54.6339C44.8683 54.3995 45 54.0815 45 53.75V47.5C45 47.1685 45.1317 46.8505 45.3661 46.6161C45.6005 46.3817 45.9185 46.25 46.25 46.25C46.5815 46.25 46.8995 46.3817 47.1339 46.6161C47.3683 46.8505 47.5 47.1685 47.5 47.5V53.75C47.5 54.7446 47.1049 55.6984 46.4016 56.4016C45.6984 57.1049 44.7446 57.5 43.75 57.5Z" fill="#231F20"/>
<path d="M36.25 8.75H26.25C25.9185 8.75 25.6005 8.6183 25.3661 8.38388C25.1317 8.14946 25 7.83152 25 7.5C25 7.16848 25.1317 6.85054 25.3661 6.61612C25.6005 6.3817 25.9185 6.25 26.25 6.25H36.25C36.5815 6.25 36.8995 6.3817 37.1339 6.61612C37.3683 6.85054 37.5 7.16848 37.5 7.5C37.5 7.83152 37.3683 8.14946 37.1339 8.38388C36.8995 8.6183 36.5815 8.75 36.25 8.75Z" fill="#231F20"/>
<path d="M46.25 12.5H16.25C15.9185 12.5 15.6005 12.3683 15.3661 12.1339C15.1317 11.8995 15 11.5815 15 11.25C15 10.9185 15.1317 10.6005 15.3661 10.3661C15.6005 10.1317 15.9185 10 16.25 10H46.25C46.5815 10 46.8995 10.1317 47.1339 10.3661C47.3683 10.6005 47.5 10.9185 47.5 11.25C47.5 11.5815 47.3683 11.8995 47.1339 12.1339C46.8995 12.3683 46.5815 12.5 46.25 12.5Z" fill="#231F20"/>
<path d="M46.25 50H16.25C15.9185 50 15.6005 49.8683 15.3661 49.6339C15.1317 49.3995 15 49.0815 15 48.75C15 48.4185 15.1317 48.1005 15.3661 47.8661C15.6005 47.6317 15.9185 47.5 16.25 47.5H46.25C46.5815 47.5 46.8995 47.6317 47.1339 47.8661C47.3683 48.1005 47.5 48.4185 47.5 48.75C47.5 49.0815 47.3683 49.3995 47.1339 49.6339C46.8995 49.8683 46.5815 50 46.25 50Z" fill="#231F20"/>
<path d="M23.75 37.5H6.25C5.25544 37.5 4.30161 37.1049 3.59835 36.4017C2.89509 35.6984 2.5 34.7446 2.5 33.75V18.75C2.5 17.7554 2.89509 16.8016 3.59835 16.0983C4.30161 15.3951 5.25544 15 6.25 15H23.75C24.7446 15 25.6984 15.3951 26.4017 16.0983C27.1049 16.8016 27.5 17.7554 27.5 18.75V33.75C27.5 34.7446 27.1049 35.6984 26.4017 36.4017C25.6984 37.1049 24.7446 37.5 23.75 37.5ZM6.25 17.5C5.91848 17.5 5.60054 17.6317 5.36612 17.8661C5.1317 18.1005 5 18.4185 5 18.75V33.75C5 34.0815 5.1317 34.3995 5.36612 34.6339C5.60054 34.8683 5.91848 35 6.25 35H23.75C24.0815 35 24.3995 34.8683 24.6339 34.6339C24.8683 34.3995 25 34.0815 25 33.75V18.75C25 18.4185 24.8683 18.1005 24.6339 17.8661C24.3995 17.6317 24.0815 17.5 23.75 17.5H6.25Z" fill="#231F20"/>
<path d="M15 26.25C14.2583 26.25 13.5333 26.0301 12.9166 25.618C12.2999 25.206 11.8193 24.6203 11.5355 23.9351C11.2516 23.2498 11.1774 22.4958 11.3221 21.7684C11.4668 21.041 11.8239 20.3728 12.3484 19.8484C12.8728 19.3239 13.541 18.9668 14.2684 18.8221C14.9958 18.6774 15.7498 18.7516 16.4351 19.0355C17.1203 19.3193 17.706 19.7999 18.118 20.4166C18.5301 21.0333 18.75 21.7583 18.75 22.5C18.75 23.4946 18.3549 24.4484 17.6517 25.1517C16.9484 25.8549 15.9946 26.25 15 26.25ZM15 21.25C14.7528 21.25 14.5111 21.3233 14.3055 21.4607C14.1 21.598 13.9398 21.7932 13.8452 22.0216C13.7505 22.2501 13.7258 22.5014 13.774 22.7439C13.8223 22.9863 13.9413 23.2091 14.1161 23.3839C14.2909 23.5587 14.5137 23.6778 14.7561 23.726C14.9986 23.7742 15.2499 23.7495 15.4784 23.6549C15.7068 23.5602 15.902 23.4 16.0393 23.1945C16.1767 22.9889 16.25 22.7472 16.25 22.5C16.25 22.1685 16.1183 21.8505 15.8839 21.6161C15.6495 21.3817 15.3315 21.25 15 21.25Z" fill="#231F20"/>
<path d="M18.75 33.75C18.4185 33.75 18.1005 33.6183 17.8661 33.3839C17.6317 33.1495 17.5 32.8315 17.5 32.5V31.25C17.5 30.9185 17.3683 30.6005 17.1339 30.3661C16.8995 30.1317 16.5815 30 16.25 30H13.75C13.4185 30 13.1005 30.1317 12.8661 30.3661C12.6317 30.6005 12.5 30.9185 12.5 31.25V32.5C12.5 32.8315 12.3683 33.1495 12.1339 33.3839C11.8995 33.6183 11.5815 33.75 11.25 33.75C10.9185 33.75 10.6005 33.6183 10.3661 33.3839C10.1317 33.1495 10 32.8315 10 32.5V31.25C10 30.2554 10.3951 29.3016 11.0983 28.5983C11.8016 27.8951 12.7554 27.5 13.75 27.5H16.25C17.2446 27.5 18.1984 27.8951 18.9017 28.5983C19.6049 29.3016 20 30.2554 20 31.25V32.5C20 32.8315 19.8683 33.1495 19.6339 33.3839C19.3995 33.6183 19.0815 33.75 18.75 33.75Z" fill="#231F20"/>
<path d="M53.75 45H36.25C35.2554 45 34.3016 44.6049 33.5983 43.9016C32.8951 43.1984 32.5 42.2446 32.5 41.25V26.25C32.5 25.2554 32.8951 24.3016 33.5983 23.5983C34.3016 22.8951 35.2554 22.5 36.25 22.5H53.75C54.7446 22.5 55.6984 22.8951 56.4017 23.5983C57.1049 24.3016 57.5 25.2554 57.5 26.25V41.25C57.5 42.2446 57.1049 43.1984 56.4017 43.9016C55.6984 44.6049 54.7446 45 53.75 45ZM36.25 25C35.9185 25 35.6005 25.1317 35.3661 25.3661C35.1317 25.6005 35 25.9185 35 26.25V41.25C35 41.5815 35.1317 41.8995 35.3661 42.1339C35.6005 42.3683 35.9185 42.5 36.25 42.5H53.75C54.0815 42.5 54.3995 42.3683 54.6339 42.1339C54.8683 41.8995 55 41.5815 55 41.25V26.25C55 25.9185 54.8683 25.6005 54.6339 25.3661C54.3995 25.1317 54.0815 25 53.75 25H36.25Z" fill="#231F20"/>
<path d="M45 33.75C44.2583 33.75 43.5333 33.5301 42.9166 33.118C42.2999 32.706 41.8193 32.1203 41.5355 31.4351C41.2516 30.7498 41.1774 29.9958 41.3221 29.2684C41.4668 28.541 41.8239 27.8728 42.3484 27.3484C42.8728 26.8239 43.541 26.4668 44.2684 26.3221C44.9958 26.1774 45.7498 26.2516 46.4351 26.5355C47.1203 26.8193 47.706 27.2999 48.118 27.9166C48.5301 28.5333 48.75 29.2583 48.75 30C48.75 30.9946 48.3549 31.9484 47.6516 32.6517C46.9484 33.3549 45.9946 33.75 45 33.75ZM45 28.75C44.7528 28.75 44.5111 28.8233 44.3055 28.9607C44.1 29.098 43.9398 29.2932 43.8452 29.5216C43.7505 29.7501 43.7258 30.0014 43.774 30.2439C43.8223 30.4863 43.9413 30.7091 44.1161 30.8839C44.2909 31.0587 44.5137 31.1778 44.7561 31.226C44.9986 31.2742 45.2499 31.2495 45.4784 31.1549C45.7068 31.0602 45.902 30.9 46.0393 30.6945C46.1767 30.4889 46.25 30.2472 46.25 30C46.25 29.6685 46.1183 29.3505 45.8839 29.1161C45.6495 28.8817 45.3315 28.75 45 28.75Z" fill="#231F20"/>
<path d="M48.75 41.25C48.4185 41.25 48.1005 41.1183 47.8661 40.8839C47.6317 40.6495 47.5 40.3315 47.5 40V38.75C47.5 38.4185 47.3683 38.1005 47.1339 37.8661C46.8995 37.6317 46.5815 37.5 46.25 37.5H43.75C43.4185 37.5 43.1005 37.6317 42.8661 37.8661C42.6317 38.1005 42.5 38.4185 42.5 38.75V40C42.5 40.3315 42.3683 40.6495 42.1339 40.8839C41.8995 41.1183 41.5815 41.25 41.25 41.25C40.9185 41.25 40.6005 41.1183 40.3661 40.8839C40.1317 40.6495 40 40.3315 40 40V38.75C40 37.7554 40.3951 36.8016 41.0984 36.0983C41.8016 35.3951 42.7554 35 43.75 35H46.25C47.2446 35 48.1984 35.3951 48.9016 36.0983C49.6049 36.8016 50 37.7554 50 38.75V40C50 40.3315 49.8683 40.6495 49.6339 40.8839C49.3995 41.1183 49.0815 41.25 48.75 41.25Z" fill="#231F20"/>
</svg>
