<svg width="60" height="60" viewBox="0 0 60 60" fill="none" xmlns="http://www.w3.org/2000/svg">
<g clip-path="url(#clip0_87_153)">
<path d="M29.6203 59.2405C45.9791 59.2405 59.2405 45.9791 59.2405 29.6203C59.2405 13.2614 45.9791 0 29.6203 0C13.2614 0 0 13.2614 0 29.6203C0 45.9791 13.2614 59.2405 29.6203 59.2405Z" fill="#4A4A7F"/>
<path d="M13.4594 32.9863L8.89127 37.4053L30.6866 59.2195C46.5513 58.6577 59.2406 45.6219 59.2406 29.6203C59.2406 25.7304 58.4895 22.0164 57.1265 18.6134L51.7527 13.2397L39.4493 14.9814L9.22346 15.1061L6.95068 25.4317L15.7621 34.2503L15.0501 34.5773L13.4594 32.9863Z" fill="#303056"/>
<path d="M20.4952 36.8542H12.9655V33.383H17.0241V23.662H20.4952V36.8542Z" fill="#00E4EF"/>
<path d="M11.1004 38.2983C12.8566 38.2983 14.2802 36.8746 14.2802 35.1185C14.2802 33.3624 12.8566 31.9387 11.1004 31.9387C9.34429 31.9387 7.92065 33.3624 7.92065 35.1185C7.92065 36.8746 9.34429 38.2983 11.1004 38.2983Z" fill="#FFEC29"/>
<path d="M38.7455 36.8542H46.2752V33.383H42.2167V23.662H38.7455V36.8542Z" fill="#6BA7FF"/>
<path d="M48.14 38.2983C49.8962 38.2983 51.3198 36.8746 51.3198 35.1185C51.3198 33.3624 49.8962 31.9387 48.14 31.9387C46.3839 31.9387 44.9603 33.3624 44.9603 35.1185C44.9603 36.8746 46.3839 38.2983 48.14 38.2983Z" fill="#FFCB00"/>
<path d="M10.959 23.2079H7.48785V13.2396H22.1714V16.7107H10.959V23.2079Z" fill="#00E4EF"/>
<path d="M9.22348 26.3876C10.9796 26.3876 12.4033 24.964 12.4033 23.2079C12.4033 21.4517 10.9796 20.0281 9.22348 20.0281C7.46734 20.0281 6.0437 21.4517 6.0437 23.2079C6.0437 24.964 7.46734 26.3876 9.22348 26.3876Z" fill="#FFEC29"/>
<path d="M48.2817 23.2079H51.7528V13.2396H37.0693V16.7107H48.2817V23.2079Z" fill="#6BA7FF"/>
<path d="M50.0174 26.3876C51.7736 26.3876 53.1972 24.9639 53.1972 23.2078C53.1972 21.4517 51.7736 20.028 50.0174 20.028C48.2613 20.028 46.8376 21.4517 46.8376 23.2078C46.8376 24.9639 48.2613 26.3876 50.0174 26.3876Z" fill="#FFCB00"/>
<path d="M18.8122 18.4465C18.8122 24.4156 23.6512 29.2546 29.6202 29.2546L35.4401 18.4465L29.6202 7.63843C23.6511 7.63843 18.8122 12.4774 18.8122 18.4465Z" fill="#FFEC29"/>
<path d="M29.6203 7.63843V29.2546C35.5895 29.2546 40.4283 24.4156 40.4283 18.4465C40.4283 12.4774 35.5895 7.63843 29.6203 7.63843Z" fill="#FFCB00"/>
<path d="M29.6201 28.8685C23.8734 28.8685 19.1981 24.1932 19.1981 18.4465C19.1981 12.6998 23.8734 8.02454 29.6201 8.02454L32.4688 6.55418L29.6201 4.41504C21.8831 4.41504 15.5886 10.7096 15.5886 18.4465C15.5886 24.7196 19.7266 30.044 25.4162 31.8345V37.0111L27.8591 39.4954L25.4162 42.0552V43.6282L27.9513 46.3205L25.4162 48.3037V51.565L29.6201 56.9554L32.4688 30.6733L29.6201 28.8685Z" fill="white"/>
<path d="M43.6517 18.4464C43.6517 10.7095 37.3573 4.41498 29.6203 4.41498V8.02437C35.367 8.02437 40.0422 12.6996 40.0422 18.4463C40.0422 24.1931 35.3669 28.8683 29.6203 28.8683V56.9552L33.8241 51.5648V31.8344C39.5138 30.0439 43.6517 24.7195 43.6517 18.4464Z" fill="#F4F1F1"/>
<path d="M28.1122 21.9839V19.0289C28.3454 19.028 29.3229 19.0271 29.5627 19.0262H29.6202L30.6604 17.9778L29.6202 17.1542C29.5996 17.1543 29.579 17.1543 29.5601 17.1544H28.1122V14.901H29.6202L30.86 14.224L29.6202 13.029H28.9734V11.1965H27.3321V13.029H26.2404V23.8639L27.1805 23.8597C27.1833 23.8597 27.2383 23.8596 27.3321 23.8592V25.6964H28.9734V23.8546C29.187 23.854 29.4054 23.8535 29.6202 23.8529L30.9074 22.9957L29.6202 21.98C29.0254 21.9813 28.4367 21.9826 28.1122 21.9839Z" fill="#FFCB00"/>
<path d="M30.6473 25.6965H32.2886V23.7308C33.7085 23.3433 34.7557 22.0429 34.7557 20.5017C34.7557 19.3895 34.2099 18.4029 33.3727 17.7938C33.736 17.2979 33.9512 16.687 33.9512 16.0264C33.9512 14.8531 33.2731 13.8356 32.2886 13.3437V11.1965H30.6473V13.029H29.6203V14.9009H30.9538C31.5744 14.9009 32.0794 15.4058 32.0794 16.0263C32.0794 16.6469 31.5744 17.1519 30.9538 17.1519C30.7722 17.1519 30.0305 17.1528 29.6203 17.1541V19.0262H31.4083C32.2219 19.0262 32.8837 19.6881 32.8837 20.5016C32.8837 21.3153 32.2219 21.9771 31.4083 21.9771C31.1894 21.9771 30.3997 21.9782 29.6203 21.9799V23.8528C29.9878 23.8518 30.3445 23.8509 30.6473 23.8502V25.6965Z" fill="#FF9D21"/>
</g>
<defs>
<clipPath id="clip0_87_153">
<rect width="60" height="60" fill="white"/>
</clipPath>
</defs>
</svg>
