<svg width="60" height="40" viewBox="0 0 60 40" fill="none" xmlns="http://www.w3.org/2000/svg">
<path fill-rule="evenodd" clip-rule="evenodd" d="M54.4032 32.6893C54.015 32.6893 53.7 32.374 53.7 31.9862V3.32638C53.7 2.49774 53.0261 1.8238 52.1978 1.8238H7.80372C6.97509 1.8238 6.30079 2.49774 6.30079 3.32638V31.9862C6.30079 32.9119 4.89453 32.9115 4.89453 31.9862V3.32638C4.89453 1.72219 6.19918 0.417542 7.80372 0.417542H52.1971C53.8013 0.417542 55.1063 1.72219 55.1063 3.32638V31.9862C55.1063 32.3743 54.7909 32.6893 54.4032 32.6893Z" fill="black"/>
<path fill-rule="evenodd" clip-rule="evenodd" d="M32.6543 35.9462H27.3457C26.42 35.9462 26.42 34.54 27.3457 34.54H32.6543C33.58 34.54 33.5796 35.9462 32.6543 35.9462Z" fill="black"/>
<path fill-rule="evenodd" clip-rule="evenodd" d="M54.8851 39.5824H5.11455C2.29431 39.5824 0 37.2881 0 34.4672V31.9858C0 31.5977 0.315001 31.2827 0.703128 31.2827H59.2965C59.6847 31.2827 59.9996 31.5981 59.9996 31.9858V34.4672C59.9996 37.2881 57.705 39.5824 54.8851 39.5824ZM1.40626 32.6893V34.4675C1.40626 36.5126 3.06986 38.1758 5.11455 38.1758H54.8851C56.9301 38.1758 58.5934 36.5122 58.5934 34.4675V32.6893H1.40626Z" fill="black"/>
<path fill-rule="evenodd" clip-rule="evenodd" d="M5.49423 36.1361C4.20435 36.1361 2.79211 36.4065 2.79211 35.433C2.79211 34.4595 4.20435 34.7298 5.49423 34.7298C6.41955 34.7298 6.41955 36.1361 5.49423 36.1361Z" fill="black"/>
<path fill-rule="evenodd" clip-rule="evenodd" d="M10.1474 36.1361C8.85754 36.1361 7.44531 36.4065 7.44531 35.433C7.44531 34.4595 8.85754 34.7298 10.1474 34.7298C11.0727 34.7298 11.0735 36.1361 10.1474 36.1361Z" fill="black"/>
<path fill-rule="evenodd" clip-rule="evenodd" d="M14.8008 36.1361C13.5109 36.1361 12.0986 36.4065 12.0986 35.433C12.0986 34.4595 13.5109 34.7298 14.8008 34.7298C15.7264 34.7298 15.7264 36.1361 14.8008 36.1361Z" fill="black"/>
<path fill-rule="evenodd" clip-rule="evenodd" d="M51.8518 36.1361C50.5616 36.1361 49.1493 36.4065 49.1493 35.433C49.1493 34.4595 50.5623 34.7298 51.8518 34.7298C52.7775 34.7298 52.7775 36.1361 51.8518 36.1361Z" fill="black"/>
<path fill-rule="evenodd" clip-rule="evenodd" d="M56.5047 36.1361C55.2145 36.1361 53.8019 36.4065 53.8019 35.433C53.8019 34.4595 55.2152 34.7298 56.5047 34.7298C57.4301 34.7298 57.4304 36.1361 56.5047 36.1361Z" fill="black"/>
<path fill-rule="evenodd" clip-rule="evenodd" d="M41.4536 29.5439H37.7267C37.3385 29.5439 37.0235 29.2285 37.0235 28.8408V10.8917C37.0235 10.5035 37.3389 10.1885 37.7267 10.1885H41.4536C41.8417 10.1885 42.1567 10.5035 42.1567 10.8917V28.8408C42.1567 29.2282 41.8417 29.5439 41.4536 29.5439ZM38.4302 28.1373H40.7505V11.5948H38.4302V28.1373Z" fill="black"/>
<path fill-rule="evenodd" clip-rule="evenodd" d="M35.1033 29.5436H31.376C30.9879 29.5436 30.6729 29.2282 30.6729 28.8405V15.4547C30.6729 15.0665 30.9882 14.7515 31.376 14.7515H35.1033C35.4914 14.7515 35.8064 15.0665 35.8064 15.4547V28.8397C35.8067 29.2279 35.4914 29.5436 35.1033 29.5436ZM32.0798 28.1366H34.4001V16.1578H32.0798V28.1366Z" fill="black"/>
<path fill-rule="evenodd" clip-rule="evenodd" d="M28.7529 29.5436H25.0264C24.6382 29.5436 24.3232 29.2282 24.3232 28.8405V19.0294C24.3232 18.6412 24.6382 18.3262 25.0264 18.3262H28.7529C29.1411 18.3262 29.4561 18.6412 29.4561 19.0294V28.8398C29.4561 29.2279 29.1418 29.5436 28.7529 29.5436ZM25.7295 28.1366H28.0498V19.7325H25.7295V28.1366Z" fill="black"/>
<path fill-rule="evenodd" clip-rule="evenodd" d="M22.4024 29.6152H18.6758C18.2877 29.6152 17.9727 29.2999 17.9727 28.9121V22.5235C17.9727 22.1354 18.2877 21.8204 18.6758 21.8204H22.4024C22.7905 21.8204 23.1055 22.1357 23.1055 22.5235V28.9121C23.1055 29.3002 22.7912 29.6152 22.4024 29.6152ZM19.3789 28.209H21.6999V23.2266H19.3796V28.209H19.3789Z" fill="black"/>
<path fill-rule="evenodd" clip-rule="evenodd" d="M18.5458 17.09C17.6789 17.09 17.5882 15.8002 18.4629 15.6891C18.5592 15.6764 25.0086 14.7247 36.3877 3.71304C37.0522 3.06933 38.0309 4.07902 37.3654 4.72344C25.5332 16.169 18.8633 17.09 18.5462 17.09H18.5458Z" fill="black"/>
<path fill-rule="evenodd" clip-rule="evenodd" d="M35.1865 11.373C34.7256 11.373 34.3846 10.9335 34.5076 10.4839L35.9561 5.19846L30.671 6.64691C29.7766 6.89124 29.4072 5.53526 30.2991 5.29092L36.7745 3.51658C37.2962 3.37385 37.7814 3.8583 37.6383 4.38037L35.864 10.8558C35.7789 11.168 35.4959 11.373 35.1869 11.373H35.1865Z" fill="black"/>
<path fill-rule="evenodd" clip-rule="evenodd" d="M6.30078 3.32638V31.2827H53.7V3.32638C53.7 2.49774 53.0261 1.82379 52.1978 1.82379H7.80372C6.97508 1.82379 6.30078 2.49774 6.30078 3.32638ZM18.5458 17.0901C17.6788 17.0901 17.5881 15.8002 18.4628 15.6891C18.5531 15.6772 24.2351 14.8387 34.3324 5.64353L30.6719 6.64654C29.7775 6.89088 29.408 5.5349 30.2999 5.29056L36.8014 3.50954C37.3133 3.3893 37.7798 3.86638 37.6392 4.38001L35.8648 10.8555C35.6223 11.7428 34.2635 11.3793 34.5089 10.4835L35.6412 6.35123C24.8866 16.2576 18.8474 17.0897 18.5461 17.0897L18.5458 17.0901ZM25.0261 18.3266H28.7527C29.1408 18.3266 29.4558 18.6416 29.4558 19.0297V28.8401C29.4558 29.2282 29.1415 29.5439 28.7527 29.5439H25.0261C24.638 29.5439 24.323 29.2285 24.323 28.8408V19.0297C24.323 18.6416 24.638 18.3266 25.0261 18.3266ZM30.6729 28.8408V15.455C30.6729 15.0669 30.9883 14.7518 31.3761 14.7518H35.1034C35.4915 14.7518 35.8065 15.0669 35.8065 15.455V28.8401C35.8068 29.2282 35.4915 29.5439 35.1034 29.5439H31.3761C30.9879 29.5439 30.6729 29.2285 30.6729 28.8408ZM37.0236 28.8411V10.892C37.0236 10.5039 37.3389 10.1889 37.7267 10.1889H41.4537C41.8418 10.1889 42.1568 10.5039 42.1568 10.892V28.8411C42.1568 29.2285 41.8418 29.5443 41.4537 29.5443H37.7267C37.3386 29.5443 37.0236 29.2289 37.0236 28.8411ZM18.6755 21.8207H22.4021C22.7902 21.8207 23.1052 22.1361 23.1052 22.5239V28.9125C23.1052 29.3006 22.7909 29.6156 22.4021 29.6156H18.6755C18.2874 29.6156 17.9724 29.3003 17.9724 28.9125V22.5239C17.9724 22.1357 18.2874 21.8207 18.6755 21.8207Z" fill="#89CFF0"/>
<path fill-rule="evenodd" clip-rule="evenodd" d="M19.3796 23.2266L19.3789 28.209H21.6999V23.2266H19.3796Z" fill="#FA3C48"/>
<path fill-rule="evenodd" clip-rule="evenodd" d="M25.7295 19.7325V28.1366H28.0498V19.7325H25.7295Z" fill="#FFA725"/>
<path fill-rule="evenodd" clip-rule="evenodd" d="M32.0791 16.1578V28.1366H34.3994V16.1578H32.0791Z" fill="#FF6633"/>
<path fill-rule="evenodd" clip-rule="evenodd" d="M38.4297 11.5948V28.1373H40.75V11.5948H38.4297Z" fill="#25A753"/>
<path fill-rule="evenodd" clip-rule="evenodd" d="M54.4024 32.6893H1.40625V34.4675C1.40625 36.5125 3.06985 38.1758 5.11455 38.1758H54.8851C56.9301 38.1758 58.5934 36.5122 58.5934 34.4675V32.6893H54.4024ZM14.8001 34.7297C15.7258 34.7297 15.7258 36.136 14.8001 36.136C13.5102 36.136 12.098 36.4064 12.098 35.4329C12.098 34.4594 13.5102 34.7297 14.8001 34.7297ZM10.1468 34.7297C11.0721 34.7297 11.0729 36.136 10.1468 36.136C8.85694 36.136 7.44471 36.4064 7.44471 35.4329C7.44471 34.4594 8.85694 34.7297 10.1468 34.7297ZM5.49423 34.7297C6.41955 34.7297 6.41955 36.136 5.49423 36.136C4.20435 36.136 2.79211 36.4064 2.79211 35.4329C2.79211 34.4594 4.20435 34.7297 5.49423 34.7297ZM49.1493 35.4329C49.1493 34.4594 50.5623 34.7297 51.8518 34.7297C52.7775 34.7297 52.7775 36.136 51.8518 36.136C50.5616 36.136 49.1493 36.4064 49.1493 35.4329ZM56.5047 36.136C55.2145 36.136 53.8019 36.4064 53.8019 35.4329C53.8019 34.4594 55.2152 34.7297 56.5047 34.7297C57.4301 34.7297 57.4304 36.136 56.5047 36.136ZM32.6543 34.5399C33.58 34.5399 33.5796 35.9462 32.6543 35.9462H27.3457C26.42 35.9462 26.42 34.5399 27.3457 34.5399H32.6543Z" fill="#8A8A8A"/>
</svg>
