<svg width="152" height="31" viewBox="0 0 152 31" fill="none" xmlns="http://www.w3.org/2000/svg">
<g clip-path="url(#clip0_13_288)">
<path d="M9.29708 13.1056L15.2014 7.28142L21.1081 13.1103L24.5417 9.71962L15.2014 0.499969L5.86108 9.71725L9.29708 13.1056Z" fill="#BEBEBE"/>
<path d="M-0.0012207 15.5005L3.43352 12.111L6.86825 15.5005L3.43351 18.89L-0.0012207 15.5005Z" fill="#BEBEBE"/>
<path d="M9.29712 17.8944L15.2015 23.7209L21.1082 17.892L24.5442 21.278L24.5418 21.2804L15.2015 30.5L5.86113 21.2851L5.85632 21.2804L9.29712 17.8944Z" fill="#BEBEBE"/>
<path d="M23.5288 15.5013L26.9635 12.1118L30.3983 15.5013L26.9635 18.8908L23.5288 15.5013Z" fill="#BEBEBE"/>
<path d="M18.6854 15.4987L15.2013 12.0583L12.6249 14.6007L12.3272 14.8922L11.7173 15.494L11.7125 15.4987L11.7173 15.5059L15.2013 18.9416L18.6854 15.5011L18.6878 15.4987H18.6854Z" fill="#BEBEBE"/>
<path d="M35.7573 7.76959H43.2296C45.0832 7.76959 46.4855 8.24349 47.4363 9.19128C47.7946 9.54139 48.077 9.95967 48.2664 10.4208C48.4559 10.8818 48.5484 11.3761 48.5384 11.8735V11.9186C48.5449 12.3261 48.4874 12.7321 48.368 13.1223C48.2616 13.4581 48.1072 13.7773 47.9094 14.07C47.725 14.3461 47.5018 14.595 47.2466 14.8093C46.9973 15.0211 46.7242 15.2039 46.4327 15.3543C47.2734 15.6433 48.0295 16.1315 48.6345 16.776C49.1691 17.3763 49.4365 18.2056 49.4365 19.2639V19.309C49.4517 19.9699 49.3059 20.6249 49.0115 21.2188C48.7262 21.766 48.3079 22.2349 47.7941 22.5836C47.2132 22.9679 46.5664 23.2449 45.8852 23.4011C45.0759 23.5905 44.2462 23.682 43.4145 23.6736H35.7573V7.76959ZM42.4804 14.2004C43.1269 14.2312 43.7703 14.0939 44.3461 13.8023C44.5707 13.6729 44.754 13.4839 44.8754 13.257C44.9967 13.03 45.0513 12.774 45.0328 12.518V12.473C45.0447 12.2371 44.9962 12.0021 44.8917 11.7897C44.7872 11.5772 44.6301 11.3942 44.4349 11.2575C44.0364 10.9779 43.4609 10.8381 42.7085 10.8381H39.2125V14.2004H42.4804ZM43.4241 20.6098C44.0682 20.6454 44.7093 20.5 45.2729 20.1904C45.4925 20.0512 45.6703 19.8564 45.7877 19.6264C45.9051 19.3963 45.9578 19.1395 45.9404 18.8825V18.8374C45.9491 18.5932 45.8969 18.3505 45.7885 18.1308C45.6801 17.911 45.5187 17.7208 45.3186 17.5769C44.9056 17.2609 44.2381 17.103 43.316 17.103H39.2125V20.6098H43.4241Z" fill="#BEBEBE"/>
<path d="M53.8881 7.76959H57.4346V23.6783H53.8881V7.76959Z" fill="#BEBEBE"/>
<path d="M62.8011 7.76959H66.0714L73.6301 17.5603V7.76959H77.1309V23.6783H74.1127L66.3067 13.5653V23.6783H62.8011V7.76959Z" fill="#BEBEBE"/>
<path d="M87.8687 7.65585H91.1342L98.0422 23.6783H94.3397L92.8654 20.1098H86.0487L84.5744 23.6783H80.9583L87.8687 7.65585ZM91.6 17.02L89.4535 11.8593L87.3165 17.02H91.6Z" fill="#BEBEBE"/>
<path d="M101.877 7.76959H105.147L112.701 17.5603V7.76959H116.202V23.6783H113.184L105.378 13.5653V23.6783H101.877V7.76959Z" fill="#BEBEBE"/>
<path d="M128.966 23.9579C127.836 23.9674 126.715 23.7514 125.672 23.3228C124.689 22.9225 123.798 22.3322 123.051 21.5867C122.303 20.8412 121.714 19.9555 121.319 18.9819C120.901 17.9636 120.69 16.8745 120.697 15.776V15.731C120.678 13.5659 121.522 11.4802 123.047 9.92342C123.798 9.163 124.696 8.56013 125.689 8.15105C126.768 7.70976 127.927 7.48968 129.096 7.50418C129.787 7.49909 130.477 7.5602 131.156 7.68663C131.737 7.79507 132.305 7.96262 132.851 8.18659C133.347 8.39241 133.818 8.65146 134.256 8.95904C134.683 9.25903 135.085 9.59348 135.456 9.95896L133.202 12.5275C132.626 12.003 131.979 11.5589 131.281 11.2077C130.595 10.8839 129.842 10.7217 129.081 10.7338C128.449 10.7271 127.822 10.8534 127.242 11.1042C126.662 11.3551 126.144 11.7247 125.72 12.1886C125.3 12.6514 124.971 13.1874 124.75 13.7691C124.518 14.3839 124.402 15.035 124.406 15.6907V15.7358C124.404 16.3906 124.52 17.0406 124.75 17.655C124.968 18.2389 125.294 18.7779 125.71 19.245C126.131 19.7146 126.648 20.0897 127.228 20.3448C127.808 20.5999 128.437 20.7291 129.072 20.7235C129.88 20.7487 130.683 20.5769 131.408 20.2236C132.099 19.8522 132.737 19.3933 133.307 18.8587L135.564 21.1097C135.166 21.5366 134.735 21.9327 134.275 22.2945C133.823 22.647 133.333 22.9482 132.813 23.1925C132.259 23.4499 131.675 23.6401 131.074 23.7588C130.38 23.8961 129.674 23.9628 128.966 23.9579V23.9579Z" fill="#BEBEBE"/>
<path d="M139.75 7.76959H151.882V10.8831H143.238V14.1103H150.85V17.2238H143.25V20.5648H152.002V23.6783H139.757L139.75 7.76959Z" fill="#BEBEBE"/>
</g>
<defs>
<clipPath id="clip0_13_288">
<rect width="152" height="30" fill="white" transform="translate(0 0.5)"/>
</clipPath>
</defs>
</svg>
