<svg width="124" height="33" viewBox="0 0 124 33" fill="none" xmlns="http://www.w3.org/2000/svg">
<path d="M17.2443 33C26.4919 33 33.9886 25.6127 33.9886 16.5C33.9886 7.3873 26.4919 0 17.2443 0C7.99667 0 0.5 7.3873 0.5 16.5C0.5 25.6127 7.99667 33 17.2443 33Z" fill="#BEBEBE"/>
<path d="M19.0278 18.0227V18.02C18.912 18.028 18.3144 18.0625 16.9845 18.0625C15.9212 18.0625 15.1755 18.0333 14.9117 18.02V18.0227C10.8225 17.8449 7.77248 17.1446 7.77248 16.3037C7.77248 15.4654 10.8252 14.7625 14.9117 14.5847V17.325C15.1782 17.3436 15.9454 17.3887 17.0034 17.3887C18.274 17.3887 18.9093 17.3356 19.0278 17.325V14.5874C23.1088 14.7678 26.1508 15.4681 26.1508 16.3064C26.1508 17.1446 23.1062 17.8449 19.0278 18.0253V18.0227ZM19.0278 14.3035V11.8524H24.7214V8.11472H9.22078V11.8524H14.9144V14.3035C10.2868 14.5131 6.80875 15.415 6.80875 16.4974C6.80875 17.5797 10.2895 18.4816 14.9144 18.6938V26.5512H19.0305V18.6938C23.6499 18.4843 27.1226 17.5823 27.1226 16.5C27.1226 15.4203 23.6499 14.5158 19.0305 14.3062" fill="#F8F8FC"/>
<path d="M48.21 9.13602V13.0992H52.1188V16.0729H48.1831V22.1026C48.1831 23.4343 48.9288 24.0842 50.0217 24.0842C50.5682 24.0842 51.2008 23.9145 51.7177 23.6598L52.6949 26.6043C51.6908 26.9996 50.8563 27.1694 49.7929 27.1986C46.7187 27.3126 44.7077 25.5857 44.7077 22.1026V16.0729H42.0642V13.0992H44.7077V9.50475L48.21 9.13602ZM115.599 12.9135L115.857 14.5264C116.95 12.7995 118.415 12.5448 119.852 12.5448C121.317 12.5448 122.725 13.1098 123.5 13.8738L121.92 16.8741C121.201 16.2799 120.541 15.9668 119.392 15.9668C117.553 15.9668 115.857 16.9298 115.857 19.5056V26.867H112.352V12.9082L115.599 12.9135ZM107.009 18.2641C106.78 16.4523 105.342 15.5451 103.332 15.5451C101.436 15.5451 99.883 16.4523 99.3662 18.2641H107.009ZM99.3096 21.1238C99.5385 22.8507 101.062 24.0975 103.533 24.0975C104.826 24.0975 106.522 23.6147 107.326 22.795L109.566 24.9756C108.072 26.5035 105.63 27.241 103.474 27.241C98.5909 27.241 95.6862 24.2673 95.6862 19.7947C95.6862 15.5477 98.6178 12.4891 103.216 12.4891C107.956 12.4891 110.918 15.3779 110.371 21.1238H99.3096ZM83.8522 7.05096V14.8076C85.1174 13.1947 86.668 12.7119 88.2778 12.7119C92.2997 12.7119 94.0818 15.4018 94.0818 19.5083V26.8696H90.5768V19.5374C90.5768 16.9881 89.2254 15.9138 87.3571 15.9138C85.287 15.9138 83.8522 17.6407 83.8522 19.7364V26.8723H80.3472V7.05362L83.8522 7.05096ZM74.5432 8.97686V12.9401H78.452V15.9138H74.5163V21.9435C74.5163 23.2751 75.2647 23.9251 76.3549 23.9251C76.9014 23.9251 77.534 23.7553 78.0509 23.5006L79.0281 26.4452C78.024 26.8404 77.1894 27.0102 76.1261 27.0394C73.0518 27.1535 71.0409 25.4239 71.0409 21.9435V15.9138H68.3974V12.9401H71.0409V9.34559L74.5432 8.97686ZM64.8601 18.2641C64.6313 16.4523 63.1937 15.5451 61.1828 15.5451C59.2876 15.5451 57.7343 16.4523 57.2175 18.2641H64.8601ZM57.1609 21.1238C57.3898 22.8507 58.9134 24.0975 61.3847 24.0975C62.6769 24.0975 64.3728 23.6147 65.1777 22.795L67.4175 24.9756C65.9234 26.5035 63.4818 27.241 61.3255 27.241C56.4395 27.241 53.5375 24.2673 53.5375 19.7947C53.5375 15.5477 56.4691 12.4891 61.0643 12.4891C65.805 12.4891 68.7635 15.3779 68.2197 21.1238H57.1609Z" fill="#BEBEBE"/>
</svg>
