<svg width="130" height="21" viewBox="0 0 130 21" fill="none" xmlns="http://www.w3.org/2000/svg">
<g clip-path="url(#clip0_13_292)">
<path d="M11.075 0.393616H23.246C23.2386 0.553394 23.183 0.707275 23.0864 0.835269C22.6743 1.5366 22.3035 2.26655 21.8987 2.96788C21.326 3.97489 20.7904 5.0003 20.2084 6.00323C19.8397 6.725 19.4235 7.42429 19.03 8.13379C16.6651 8.13379 14.3001 8.13379 11.9351 8.13379C11.8115 8.13379 11.6889 8.13993 11.5653 8.14708C11.4623 8.41698 11.2913 8.65315 11.1533 8.90669C10.973 9.19703 10.8268 9.5068 10.6486 9.79715C10.4601 10.1877 10.1995 10.5373 10.0099 10.9268C9.61851 11.5863 9.25284 12.2559 8.86966 12.9225C8.47001 13.604 8.07928 14.2951 7.69747 14.9958C7.53589 15.2441 7.38703 15.5004 7.25146 15.7636C6.45112 17.1458 5.67652 18.5402 4.87515 19.9214C4.80717 20.0699 4.71764 20.2077 4.60939 20.3304C3.23943 20.3212 1.86947 20.3304 0.499511 20.3304C0.330779 20.3336 0.163048 20.3569 -6.10352e-05 20.3999C-6.10352e-05 20.0237 0.25333 19.7221 0.424318 19.4062C0.630327 18.9819 0.905349 18.5883 1.11239 18.163C2.75428 15.2473 4.37866 12.3213 6.01541 9.40355C6.38622 8.76969 6.70451 8.12255 7.07738 7.50096C7.54296 6.68309 7.97661 5.84681 8.46177 5.03813C8.61627 4.69974 8.82434 4.38996 8.9943 4.05975C9.59791 2.99344 10.1902 1.921 10.7917 0.854694C10.8631 0.688167 10.9585 0.532844 11.075 0.393616Z" fill="#BEBEBE"/>
<path d="M25.1784 4.68643C25.9891 3.2807 26.7719 1.85964 27.5939 0.460052H31.9901C32.0542 0.463268 32.1177 0.473206 32.1796 0.489701C32.0334 0.709505 31.9108 0.9426 31.782 1.17161C30.7218 3.06022 29.6646 4.94985 28.6105 6.84051C28.1676 7.61034 27.7556 8.39754 27.3065 9.16328L27.2622 9.17862L27.254 9.27472C25.187 12.9552 23.1269 16.6383 21.0737 20.3242C17.038 20.3283 13.0019 20.3283 8.96548 20.3242C9.19518 19.8478 9.46712 19.3929 9.72257 18.9298C10.8721 16.8319 12.0515 14.7524 13.1846 12.6546C15.6642 12.6505 18.1439 12.6505 20.6235 12.6546C22.1552 10.0067 23.6539 7.33839 25.1743 4.68643H25.1784Z" fill="#BEBEBE"/>
<path d="M70.5488 0.405884V20.5665H74.0684V6.38967L80.4887 15.7268L86.8575 6.16782V20.5665H90.4802V0.405884H86.5835L80.5145 9.7123L74.3775 0.405884H70.5488Z" fill="#BEBEBE"/>
<path d="M54.0856 5.6055H56.3857V20.7362H54.0856V5.6055Z" fill="#BEBEBE"/>
<path d="M53.8878 0H56.5835V2.53848H53.8878V0Z" fill="#BEBEBE"/>
<path d="M60.7809 1.26974H63.184V5.60551H67.9222V7.7187H63.184V16.7072C63.1798 17.0535 63.2608 17.3956 63.4198 17.704C63.8267 18.4707 64.9319 19.3806 67.9222 18.3174V20.2762C67.9222 20.2762 65.1925 21.8097 62.7204 20.4132C62.7204 20.4132 61.4926 19.8959 60.9766 18.1497C60.8425 17.6819 60.7766 17.1975 60.7809 16.7113V7.68496L58.7548 7.7187V5.60551H60.7973L60.7809 1.26974Z" fill="#BEBEBE"/>
<path d="M94.1884 0.405884V20.7025H109.467V17.431H97.9141V12.0463H108.094V8.82592H97.8966V3.69784H109.348V0.405884H94.1884Z" fill="#BEBEBE"/>
<path d="M110.901 0.405884H115.253L120.249 7.53163L125.205 0.405884H129.557L122.45 10.3042L130 20.6851H125.416L120.266 13.1034L114.867 20.7025H110.515L117.957 10.3942L110.901 0.405884Z" fill="#BEBEBE"/>
<path d="M47.0463 10.1723C47.0463 10.1723 50.4115 8.91175 50.2055 5.28243C50.2055 5.28243 50.1777 1.79214 46.2182 0.714587C45.5599 0.539511 44.8808 0.452862 44.1993 0.456956H34.7033L34.7291 20.6176H44.9523C44.9523 20.6176 50.9348 20.4898 51.3561 15.1992C51.3561 15.1992 51.7846 11.5014 47.0463 10.1723ZM37.1579 2.53845H43.2187C47.9734 2.52209 47.8364 5.84472 47.8364 5.84472C47.9075 9.63558 43.5442 9.5589 43.5442 9.5589H37.1579V2.53845ZM44.5742 18.487H37.1579V11.4676H44.2487C49.0034 11.4502 48.8664 14.7729 48.8664 14.7729C48.9375 18.5637 44.5742 18.487 44.5742 18.487Z" fill="#BEBEBE"/>
</g>
<defs>
<clipPath id="clip0_13_292">
<rect width="130" height="21" fill="white"/>
</clipPath>
</defs>
</svg>
