<svg width="383" height="314" viewBox="0 0 383 314" fill="none" xmlns="http://www.w3.org/2000/svg">
<g filter="url(#filter0_b_87_148)">
<path d="M0 33C0 14.7746 14.7746 0 33 0H350C368.225 0 383 14.7746 383 33V157V192.853C383 211.329 367.832 226.205 349.359 225.847L312.714 225.135C294.602 224.784 279.592 239.099 279.086 257.208L278.396 281.921C277.897 299.781 263.275 314 245.409 314H191.5H33C14.7746 314 0 299.225 0 281V33Z" fill="#D4D4D4" fill-opacity="0.1"/>
<path d="M0.5 33C0.5 15.0508 15.0507 0.5 33 0.5H350C367.949 0.5 382.5 15.0507 382.5 33V157V192.853C382.5 211.049 367.562 225.7 349.369 225.347L312.724 224.635C294.337 224.278 279.1 238.811 278.587 257.194L277.896 281.907C277.405 299.496 263.005 313.5 245.409 313.5H191.5H33C15.0507 313.5 0.5 298.949 0.5 281V33Z" stroke="url(#paint0_linear_87_148)" stroke-opacity="0.5"/>
</g>
<defs>
<filter id="filter0_b_87_148" x="-119.3" y="-119.3" width="621.6" height="552.6" filterUnits="userSpaceOnUse" color-interpolation-filters="sRGB">
<feFlood flood-opacity="0" result="BackgroundImageFix"/>
<feGaussianBlur in="BackgroundImageFix" stdDeviation="59.65"/>
<feComposite in2="SourceAlpha" operator="in" result="effect1_backgroundBlur_87_148"/>
<feBlend mode="normal" in="SourceGraphic" in2="effect1_backgroundBlur_87_148" result="shape"/>
</filter>
<linearGradient id="paint0_linear_87_148" x1="0" y1="0" x2="335.5" y2="290" gradientUnits="userSpaceOnUse">
<stop stop-color="white"/>
<stop offset="1" stop-color="#C1C1C1" stop-opacity="0"/>
</linearGradient>
</defs>
</svg>
